<mxfile host="app.diagrams.net" modified="2023-12-12T16:28:22.370Z" agent="Mozilla/5.0 (Windows NT 10.0; Win64; x64) AppleWebKit/537.36 (KHTML, like Gecko) Chrome/120.0.0.0 Safari/537.36" version="21.7.4" etag="CM3W_MNwExTwb_7Eey76" type="github">
  <diagram name="第 1 页" id="CMauJBl2f8XkfaqP07zA">
    <mxGraphModel>
      <root>
        <mxCell id="0" />
        <mxCell id="1" parent="0" />
      </root>
    </mxGraphModel>
  </diagram>
</mxfile>
